# xmcd
#
# Track frame offsets:
#  183
#  16478
#  32680
#  47648
#  73248
#  89528
#  104230
#  124718
#  141270
#  157773
#  174053
#  198125
#  211458
#
# Disc length: 3033 seconds
#
# Revision: 0
# Processed by: cddbd v1.4PL0 Copyright (c) Steve Scherf et al.
# Submitted via: AltoMP3_Maker 3.0
#
DISCID=b20bd70d
DTITLE=Checkerboard Blues Band - Dedicated
DYEAR=1900
DGENRE=
TTITLE0=Dedicated
TTITLE1=Early In The Morning
TTITLE2=I'm Not Your Plaything, Baby!
TTITLE3=My Kind Of Blues
TTITLE4=Giving Up The Streets
TTITLE5=Everyday I Have The Blues
TTITLE6=Trying To Change
TTITLE7=Excuses
TTITLE8=Wow, You Must Be Crazy!
TTITLE9=Twentynine Ways
TTITLE10=Chicago By Night
TTITLE11=Checkerboard Boogie
TTITLE12=Love Me Tender
EXTD=
EXTT0=
EXTT1=
EXTT2=
EXTT3=
EXTT4=
EXTT5=
EXTT6=
EXTT7=
EXTT8=
EXTT9=
EXTT10=
EXTT11=
EXTT12=
PLAYORDER=
